<?xml version="1.0" standalone="no"?>
<!DOCTYPE svg PUBLIC "-//W3C//DTD SVG 1.1//EN" "http://www.w3.org/Graphics/SVG/1.1/DTD/svg11.dtd" >
<svg xmlns="http://www.w3.org/2000/svg">
<metadata>Generated by IcoMoon</metadata>
<defs>
<font id="icomoonapp1" horiz-adv-x="1024">
<font-face units-per-em="1024" ascent="901.12" descent="-122.88" />
<missing-glyph horiz-adv-x="1024" />
<glyph unicode="&#x20;" horiz-adv-x="512" d="" />
<glyph unicode="&#xe600;" glyph-name="icomoon" d="M259.544 384.002c-0.010 65.416 53.010 118.456 118.426 118.464 65.416 0.010 118.456-53.010 118.464-118.426 0-0.012 0-0.026 0-0.038 0.010-65.416-53.010-118.456-118.426-118.464s-118.454 53.010-118.464 118.426c0 0.012 0 0.026 0 0.038zM512.004 896c-282.774 0-512.004-229.232-512.004-512s229.226-512 512.004-512c282.764 0 511.996 229.23 511.996 512 0 282.768-229.23 512-511.996 512zM379.396-31.282c-153.956 89.574-257.468 224.324-257.468 415.282s103.512 325.708 257.462 415.282c154.010-89.562 257.59-224.288 257.59-415.282 0-190.988-103.58-325.718-257.584-415.282z" />
<glyph unicode="&#xe601;" glyph-name="bottom" horiz-adv-x="768" d="M384 271.998l-272 272.002-80-80.002 352-351.996 352 351.996-80 80.002z" />
<glyph unicode="&#xe602;" glyph-name="right" horiz-adv-x="768" d="M496.004 384l-272-271.998 80-80.002 351.996 352-351.996 352-80.002-80z" />
<glyph unicode="&#xe603;" glyph-name="eye" d="M512 704c-223.318 0-416.882-130.042-512-320 95.118-189.958 288.682-320 512-320 223.314 0 416.878 130.042 512 320-95.116 189.958-288.686 320-512 320zM764.45 534.296c60.162-38.374 111.142-89.774 149.434-150.296-38.292-60.522-89.274-111.922-149.436-150.298-75.594-48.216-162.89-73.702-252.448-73.702-89.56 0-176.856 25.486-252.45 73.704-60.16 38.372-111.14 89.772-149.434 150.296 38.292 60.524 89.274 111.924 149.434 150.296 3.918 2.5 7.876 4.922 11.858 7.3-9.958-27.328-15.408-56.822-15.408-87.596 0-141.384 114.616-256 256-256s256 114.616 256 256c0 30.774-5.45 60.268-15.408 87.598 3.98-2.378 7.938-4.802 11.858-7.302zM512 486c0-53.020-42.98-96-96-96s-96 42.98-96 96 42.98 96 96 96 96-42.98 96-96z" />
<glyph unicode="&#xe604;" glyph-name="import" d="M576 640v192h-128v-192h-192v-128h192v-192h128v192h192v128zM896 512v-384h-768v384h-128v-416c0-52.8 43.2-96 96-96h832c52.8 0 96 43.2 96 96v416h-128z" />
<glyph unicode="&#xe605;" glyph-name="select" d="M832.124-42.132v0l-138.256 277.066 273.764 47.34-647.632 485.726v-809.542l202.132 190.61 138.262-277.068zM64 224v576c0 17.346 14.654 32 32 32h704c17.346 0 32-14.654 32-32v-256l64-48v304c0 52.8-43.2 96-96 96h-704c-52.8 0-96-43.2-96-96v-576c0-52.8 43.2-96 96-96h96v64h-96c-17.346 0-32 14.654-32 32z" />
<glyph unicode="&#xe606;" glyph-name="edit" d="M864 896c88.364 0 160-71.634 160-160 0-36.020-11.91-69.258-32-96l-64-64-224 224 64 64c26.742 20.090 59.978 32 96 32zM64 160l-64-288 288 64 592 592-224 224-592-592zM715.578 532.422l-448-448-55.156 55.156 448 448 55.156-55.156z" />
<glyph unicode="&#xe607;" glyph-name="search" d="M992.262 24.604l-242.552 206.294c-25.074 22.566-51.89 32.926-73.552 31.926 57.256 67.068 91.842 154.078 91.842 249.176 0 212.078-171.922 384-384 384-212.076 0-384-171.922-384-384s171.922-384 384-384c95.098 0 182.108 34.586 249.176 91.844-1-21.662 9.36-48.478 31.926-73.552l206.294-242.552c35.322-39.246 93.022-42.554 128.22-7.356s31.892 92.898-7.354 128.22zM384 256c-141.384 0-256 114.616-256 256s114.616 256 256 256 256-114.616 256-256-114.614-256-256-256z" />
<glyph unicode="&#xe608;" glyph-name="undo" d="M761.8-128c113.8 206 132.8 520.4-313.8 509.8v-253.8l-384 384 384 384v-248.4c264.6 6.8 412.8-108.6 461.2-263.6 49.4-158.6-5.4-358.6-147.4-512z" />
<glyph unicode="&#xe609;" glyph-name="redo" d="M262.2-128c-113.8 206-132.8 520.4 313.8 509.8v-253.8l384 384-384 384v-248.4c-264.6 6.8-412.8-108.6-461.2-263.6-49.4-158.6 5.4-358.6 147.4-512z" />
<glyph unicode="&#xe60a;" glyph-name="delete" d="M192-128h640l64 704h-768zM640 768v128h-256v-128h-320v-192l64 64h768l64-64v192h-320zM576 768h-128v64h128v-64z" />
<glyph unicode="&#xe60b;" glyph-name="menu" d="M64 704h896v-192h-896zM64 448h896v-192h-896zM64 192h896v-192h-896z" />
<glyph unicode="&#xe60c;" glyph-name="close" d="M704 528l-48 48-144-144-144 144-48-48 144-144-144-144 48-48 144 144 144-144 48 48-144 144z" />
<glyph unicode="&#xe60d;" glyph-name="next" d="M446.626 622.626l-45.252-45.252 193.372-193.374-193.372-193.374 45.252-45.252 238.628 238.626z" />
<glyph unicode="&#xe60e;" glyph-name="prev" d="M577.374 145.374l45.252 45.25-193.372 193.376 193.372 193.374-45.252 45.252-238.628-238.626z" />
<glyph unicode="&#xe60f;" glyph-name="unchecked" d="M896 896h-768c-70.4 0-128-57.6-128-128v-768c0-70.4 57.6-128 128-128h768c70.4 0 128 57.6 128 128v768c0 70.4-57.6 128-128 128zM896 0h-768v768h768v-768z" />
<glyph unicode="&#xe610;" glyph-name="checked" d="M896 896h-768c-70.4 0-128-57.6-128-128v-768c0-70.4 57.6-128 128-128h768c70.4 0 128 57.6 128 128v768c0 70.4-57.6 128-128 128zM448 101.49l-237.254 237.256 90.51 90.508 146.744-146.744 306.746 306.746 90.508-90.51-397.254-397.256z" />
<glyph unicode="&#xe611;" glyph-name="close2" d="M704 528l-48 48-144-144-144 144-48-48 144-144-144-144 48-48 144 144 144-144 48 48-144 144zM512-64c247.424 0 448 200.576 448 448s-200.576 448-448 448-448-200.576-448-448 200.576-448 448-448zM512 768c212.078 0 384-171.922 384-384s-171.922-384-384-384-384 171.924-384 384c0 212.078 171.922 384 384 384z" />
<glyph unicode="&#xe612;" glyph-name="ccw" d="M134.4 729.6c93.6 102.4 228 166.4 377.6 166.4 282.8 0 512-229.2 512-512s-229.2-512-512-512c-141.4 0-269.4 57.4-362 150l67.8 67.8c75.4-75.2 179.4-121.8 294.2-121.8 229.8 0 416 186.2 416 416s-186.2 416-416 416c-123 0-233.6-53.4-309.8-138.2l149.8-149.8h-352v352l134.4-134.4z" />
<glyph unicode="&#xe613;" glyph-name="cw" d="M889.6 729.6c-93.6 102.4-228 166.4-377.6 166.4-282.8 0-512-229.2-512-512s229.2-512 512-512c141.4 0 269.4 57.4 362 150l-67.8 67.8c-75.4-75.2-179.4-121.8-294.2-121.8-229.8 0-416 186.2-416 416s186.2 416 416 416c123 0 233.6-53.4 309.8-138.2l-149.8-149.8h352v352l-134.4-134.4z" />
<glyph unicode="&#xe614;" glyph-name="flip-h" d="M448 896h64v-192h-64v192zM448 640h64v-192h-64v192zM448 320h64v-192h-64v192zM448 64h64v-192h-64v192zM416 384l-416 416v-832zM552 376l16-16h392v16zM712 216l16-16h232v16zM584 344l16-16h360v16zM648 280l16-16h296v16zM616 312l16-16h328v16zM680 248l16-16h264v16zM872 56l16-16h72v16zM904 24l16-16h40v16zM776 152l16-16h168v16zM936-8l16-16h8v16zM808 120l16-16h136v16zM840 88l16-16h104v16zM744 184l16-16h200v16zM856 696l-16-16h120v16zM568 408l-16-16h408v16zM888 728l-16-16h88v16zM952 792l-16-16h24v16zM920 760l-16-16h56v16zM792 632l-16-16h184v16zM824 664l-16-16h152v16zM632 472l-16-16h344v16zM760 600l-16-16h216v16zM664 504l-16-16h312v16zM600 440l-16-16h376v16zM728 568l-16-16h248v16zM696 536l-16-16h280v16z" />
<glyph unicode="&#xe615;" glyph-name="flip-v" d="M1024 384v-64h-192v64h192zM768 384v-64h-192v64h192zM448 384v-64h-192v64h192zM192 384v-64h-192v64h192zM512 416l416 416h-832zM504 280l-16-16v-392h16zM344 120l-16-16v-232h16zM472 248l-16-16v-360h16zM408 184l-16-16v-296h16zM440 216l-16-16v-328h16zM376 152l-16-16v-264h16zM184-40l-16-16v-72h16zM152-72l-16-16v-40h16zM280 56l-16-16v-168h16zM120-104l-16-16v-8h16zM248 24l-16-16v-136h16zM216-8l-16-16v-104h16zM312 88l-16-16v-200h16zM824-24l-16 16v-120h16zM536 264l-16 16v-408h16zM856-56l-16 16v-88h16zM920-120l-16 16v-24h16zM888-88l-16 16v-56h16zM760 40l-16 16v-184h16zM792 8l-16 16v-152h16zM600 200l-16 16v-344h16zM728 72l-16 16v-216h16zM632 168l-16 16v-312h16zM568 232l-16 16v-376h16zM696 104l-16 16v-248h16zM664 136l-16 16v-280h16z" />
<glyph unicode="&#xe616;" glyph-name="move-left" d="M32 384l480-480v288h512v384h-512v288z" />
<glyph unicode="&#xe617;" glyph-name="move-right" d="M992 384l-480 480v-288h-512v-384h512v-288z" />
<glyph unicode="&#xe618;" glyph-name="move-up" d="M512 864l-480-480h288v-512h384v512h288z" />
<glyph unicode="&#xe619;" glyph-name="move-down" d="M512-96l480 480h-288v512h-384v-512h-288z" />
<glyph unicode="&#xe61a;" glyph-name="scale-down" d="M768 640h-576v-576h576v576zM704 128h-448v448h448v-448zM80 752v-800h800v800h-800zM848-16h-736v736h736v-736zM320 384h320v-64h-320z" />
<glyph unicode="&#xe61b;" glyph-name="scale-up" d="M896 768h-832v-832h832v832zM960 832v0-960h-960v960h960zM784 656h-608v-608h608v608zM816 688v0-672h-672v672h672zM448 512h64v-320h-64zM320 384h320v-64h-320z" />
<glyph unicode="&#xe61c;" glyph-name="next2" d="M446.626 622.626l-45.252-45.252 193.372-193.374-193.372-193.374 45.252-45.252 238.628 238.626zM512 832c-247.424 0-448-200.576-448-448s200.576-448 448-448 448 200.576 448 448-200.576 448-448 448zM512 0c-212.078 0-384 171.922-384 384s171.922 384 384 384c212.078 0 384-171.922 384-384s-171.922-384-384-384z" />
<glyph unicode="&#xe61d;" glyph-name="prev2" d="M577.374 145.374l45.252 45.25-193.372 193.376 193.372 193.374-45.252 45.252-238.628-238.626zM512-64c247.424 0 448 200.576 448 448s-200.576 448-448 448-448-200.576-448-448 200.576-448 448-448zM512 768c212.078 0 384-171.922 384-384s-171.922-384-384-384-384 171.924-384 384c0 212.078 171.922 384 384 384z" />
<glyph unicode="&#xe61e;" glyph-name="download" d="M160 512l352-352 352 352h-224v384h-256v-384zM896 448v-384h-768v384h-128v-416c0-52.8 43.2-96 96-96h832c52.8 0 96 43.2 96 96v416h-128z" />
<glyph unicode="&#xe61f;" glyph-name="right2" d="M354.744 189.256l90.512-90.512 285.254 285.256-285.256 285.254-90.508-90.508 194.744-194.746zM512 896c-282.77 0-512-229.23-512-512s229.23-512 512-512 512 229.23 512 512-229.23 512-512 512zM512-32c-229.75 0-416 186.25-416 416s186.25 416 416 416 416-186.25 416-416-186.25-416-416-416z" />
<glyph unicode="&#xe620;" glyph-name="image" d="M896 704v-640h-768v640h768zM928 832h-832c-52.8 0-96-43.2-96-96v-704c0-52.8 43.2-96 96-96h832c52.8 0 96 43.2 96 96v704c0 52.8-43.2 96-96 96v0zM640 288l-192 192-256-256v-96h640v352z" />
<glyph unicode="&#xe621;" glyph-name="left2" d="M669.256 578.744l-90.512 90.512-285.254-285.256 285.256-285.254 90.508 90.508-194.744 194.746zM512-128c282.77 0 512 229.23 512 512s-229.23 512-512 512-512-229.23-512-512 229.23-512 512-512zM512 800c229.75 0 416-186.25 416-416s-186.25-416-416-416-416 186.25-416 416 186.25 416 416 416z" />
<glyph unicode="&#xe622;" glyph-name="cancel" d="M896 896h-768c-70.4 0-128-57.6-128-128v-768c0-70.4 57.6-128 128-128h768c70.4 0 128 57.6 128 128v768c0 70.4-57.6 128-128 128zM797.254 189.256l-90.508-90.51-194.746 194.746-194.746-194.746-90.508 90.508 194.746 194.746-194.746 194.748 90.508 90.506 194.746-194.744 194.746 194.744 90.508-90.508-194.744-194.746 194.744-194.744z" />
<glyph unicode="&#xe623;" glyph-name="liga" d="M768 24.178c0 0.040 0.002 0.076 0.002 0.116l-0.344 436.562-127.492-6.19h-251.93v21.494c0 81.542 5.8 162.976 17.24 194.716 7.896 21.948 22.598 41.744 43.698 58.836 20.618 16.702 41.178 25.17 61.11 25.17 16.772 0 30.702-2.878 41.402-8.554 15.026-8.562 29.716-22.964 43.67-42.818 36.95-52.504 51.99-66.454 60.094-72.376 13.804-10.094 30.512-15.212 49.658-15.212 18.668 0 34.962 6.97 48.436 20.714 13.372 13.636 20.15 30.682 20.15 50.666 0 21.452-8.916 44.204-26.502 67.622-17.184 22.888-43.708 41.742-78.834 56.032-34.322 13.964-72.94 21.044-114.778 21.044-60.716 0-116.012-14.596-164.356-43.384-48.424-28.834-85.558-68.952-110.37-119.24-22.994-46.604-21.334-134.706-22.732-214.712h-125.732v-71.402h125.598v-324.668c0-71.666-21.906-91.008-30.216-101.324-11.436-14.202-32.552-29.104-60.444-29.104h-38.654v-56.166h385.326v56.168h-6.708c-91.144 0-117.020 9.832-117.020 120.842 0 0.018 0 0.034 0 0.048l-0.038 334.206h140.204c74.404 0 91.496-3.444 95.392-4.924 4.706-1.79 10.798-4.832 13.084-9.144 0.868-1.684 5.194-25.008 5.194-82.972v-250.67c0-58.454-7.124-77.896-11.45-84.402-9.248-14.194-20.41-22.066-54.66-22.904v-56.248h293.61v55.846c-91.608 0-101.608 9.82-101.608 96.332z" />
<glyph unicode="&#xe624;" glyph-name="unicode" d="M1024 320h-192v192h-64v-192h-192v-64h192v-192h64v192h192zM384 704v-512c0-70.58-57.42-128-128-128s-128 57.42-128 128v512h-128v-512c0-141.384 114.616-256 256-256s256 114.616 256 256v512h-128z" />
<glyph unicode="&#xe625;" glyph-name="cog" d="M633.152-128h-242.306l-24.404 146.424c-3.358 1.338-6.7 2.72-10.020 4.15l-120.792-86.282-171.338 171.334 86.116 120.562c-1.476 3.414-2.906 6.85-4.284 10.304l-146.124 24.358v242.304l145.736 24.288c1.422 3.59 2.9 7.164 4.426 10.71l-85.87 120.216 171.338 171.338 119.982-85.702c3.642 1.576 7.308 3.098 10.998 4.564l24.236 145.432h242.306l24.238-145.43c3.69-1.466 7.358-2.988 10.998-4.564l119.982 85.702 171.336-171.338-85.872-120.214c1.53-3.548 3.006-7.122 4.428-10.714l145.738-24.288v-242.304l-146.124-24.356c-1.378-3.456-2.806-6.89-4.284-10.302l86.116-120.562-171.336-171.336-120.794 86.282c-3.322-1.428-6.662-2.81-10.022-4.148l-24.404-146.428zM455.23-52h113.54l21.234 127.41 21.788 7.2c14.62 4.832 29.012 10.792 42.778 17.712l20.492 10.302 105.096-75.066 80.286 80.286-74.958 104.944 10.368 20.52c6.986 13.826 13.004 28.292 17.882 42.998l7.216 21.748 127.048 21.176v113.542l-126.804 21.134-7.178 21.84c-4.876 14.846-10.908 29.442-17.926 43.38l-10.316 20.5 74.666 104.53-80.286 80.288-104.382-74.558-20.524 10.384c-13.996 7.082-28.666 13.168-43.602 18.096l-21.804 7.192-21.074 126.442h-113.54l-21.074-126.444-21.804-7.192c-14.93-4.926-29.598-11.014-43.598-18.098l-20.524-10.384-104.384 74.56-80.288-80.288 74.666-104.532-10.316-20.498c-7.016-13.942-13.046-28.536-17.924-43.38l-7.176-21.842-126.808-21.132v-113.54l127.052-21.178 7.214-21.752c4.874-14.692 10.89-29.156 17.882-42.992l10.37-20.52-74.962-104.948 80.288-80.284 105.098 75.068 20.494-10.308c13.754-6.918 28.146-12.876 42.77-17.71l21.788-7.2 21.236-127.406zM544 512h-64c-52.8 0-96-43.2-96-96v-64c0-52.8 43.2-96 96-96h64c52.8 0 96 43.2 96 96v64c0 52.8-43.2 96-96 96zM576 352c0-17.6-14.4-32-32-32h-64c-17.6 0-32 14.4-32 32v64c0 17.6 14.4 32 32 32h64c17.6 0 32-14.4 32-32v-64z" />
<glyph unicode="&#xe626;" glyph-name="cancel2" d="M512 896c-282.77 0-512-229.23-512-512s229.23-512 512-512 512 229.23 512 512-229.23 512-512 512zM512-32c-229.75 0-416 186.25-416 416s186.25 416 416 416 416-186.25 416-416-186.25-416-416-416zM765.254 546.746l-90.508 90.508-162.746-162.744-162.746 162.744-90.508-90.506 162.746-162.748-162.746-162.746 90.508-90.508 162.746 162.746 162.746-162.746 90.508 90.51-162.744 162.744z" />
<glyph unicode="&#xe627;" glyph-name="reset" d="M64 704h64v-640h-64zM800 384l-288 288v-224h-320v-128h320v-224zM896 704h64v-640h-64z" />
<glyph unicode="&#xe628;" glyph-name="all-none" d="M256 832h-128c-35.2 0-64-28.8-64-64v-128c0-35.2 28.8-64 64-64h128c35.2 0 64 28.8 64 64v128c0 35.2-28.8 64-64 64zM576 832h-128c-35.2 0-64-28.8-64-64v-128c0-35.2 28.8-64 64-64h128c35.2 0 64 28.8 64 64v128c0 35.2-28.8 64-64 64zM896 832h-128c-35.2 0-64-28.8-64-64v-128c0-35.2 28.8-64 64-64h128c35.2 0 64 28.8 64 64v128c0 35.2-28.8 64-64 64zM256 512h-128c-35.2 0-64-28.8-64-64v-128c0-35.2 28.8-64 64-64h128c35.2 0 64 28.8 64 64v128c0 35.2-28.8 64-64 64zM576 512h-128c-35.2 0-64-28.8-64-64v-128c0-35.2 28.8-64 64-64h128c35.2 0 64 28.8 64 64v128c0 35.2-28.8 64-64 64zM896 512h-128c-35.2 0-64-28.8-64-64v-128c0-35.2 28.8-64 64-64h128c35.2 0 64 28.8 64 64v128c0 35.2-28.8 64-64 64zM896 320h-128v128h128v-128zM896 192h-128c-35.2 0-64-28.8-64-64v-128c0-35.2 28.8-64 64-64h128c35.2 0 64 28.8 64 64v128c0 35.2-28.8 64-64 64zM896 0h-128v128h128v-128zM256 192h-128c-35.2 0-64-28.8-64-64v-128c0-35.2 28.8-64 64-64h128c35.2 0 64 28.8 64 64v128c0 35.2-28.8 64-64 64zM576 192h-128c-35.2 0-64-28.8-64-64v-128c0-35.2 28.8-64 64-64h128c35.2 0 64 28.8 64 64v128c0 35.2-28.8 64-64 64zM576 0h-128v128h128v-128z" />
<glyph unicode="&#xe629;" glyph-name="code" d="M576 160l96-96 320 320-320 320-96-96 224-224zM448 608l-96 96-320-320 320-320 96 96-224 224z" />
<glyph unicode="&#xe62a;" glyph-name="scale" d="M672 896l128-128-192-192h-608v-704h704v608l192 192 128-128v352h-352zM640-64h-576v576h480l-224-224-128 128v-352h352l-128 128 224 224v-480z" />
<glyph unicode="&#xe62b;" glyph-name="info" d="M512 896c-282.77 0-512-229.23-512-512s229.23-512 512-512 512 229.23 512 512-229.23 512-512 512zM448 656c0 26.4 21.6 48 48 48h32c26.4 0 48-21.6 48-48v-32c0-26.4-21.6-48-48-48h-32c-26.4 0-48 21.6-48 48v32zM640 64h-256v64h64v256h-64v64h192v-320h64v-64z" />
<glyph unicode="&#xe62c;" glyph-name="arrow-right2" d="M512 896c-282.77 0-512-229.23-512-512s229.23-512 512-512 512 229.23 512 512-229.23 512-512 512zM512-32c-229.75 0-416 186.25-416 416s186.25 416 416 416 416-186.25 416-416-186.25-416-416-416zM448 218.508v-90.508h90.508l256 256-256 256h-90.508v-90.506l101.492-101.494h-293.492v-128h293.492z" />
<glyph unicode="&#xe62d;" glyph-name="warning" d="M512 896c-282.77 0-512-229.23-512-512s229.23-512 512-512 512 229.23 512 512-229.23 512-512 512zM576 64h-128v128h128v-128zM576 320h-128v384h128v-384z" />
<glyph unicode="&#xe62e;" glyph-name="check" d="M896 736l-544-544-224 224-96-96 320-320 640 640z" />
<glyph unicode="&#xe62f;" glyph-name="stack" d="M1024 576l-512 256-512-256 512-256 512 256zM512 747.030l342.058-171.030-342.058-171.030-342.058 171.030 342.058 171.030zM921.444 435.278l102.556-51.278-512-256-512 256 102.556 51.278 409.444-204.722zM921.444 243.278l102.556-51.278-512-256-512 256 102.556 51.278 409.444-204.722z" />
<glyph unicode="&#xe630;" glyph-name="clear" d="M896 512h-128c-35.2 0-64-28.8-64-64v-128c0-35.2 28.8-64 64-64h128c35.2 0 64 28.8 64 64v128c0 35.2-28.8 64-64 64zM896 320h-128v128h128v-128zM576 512h-128c-35.2 0-64-28.8-64-64v-128c0-35.2 28.8-64 64-64h128c35.2 0 64 28.8 64 64v128c0 35.2-28.8 64-64 64zM576 320h-128v128h128v-128zM256 512h-128c-35.2 0-64-28.8-64-64v-128c0-35.2 28.8-64 64-64h128c35.2 0 64 28.8 64 64v128c0 35.2-28.8 64-64 64zM256 320h-128v128h128v-128zM896 832h-128c-35.2 0-64-28.8-64-64v-128c0-35.2 28.8-64 64-64h128c35.2 0 64 28.8 64 64v128c0 35.2-28.8 64-64 64zM896 640h-128v128h128v-128zM576 832h-128c-35.2 0-64-28.8-64-64v-128c0-35.2 28.8-64 64-64h128c35.2 0 64 28.8 64 64v128c0 35.2-28.8 64-64 64zM576 640h-128v128h128v-128zM256 832h-128c-35.2 0-64-28.8-64-64v-128c0-35.2 28.8-64 64-64h128c35.2 0 64 28.8 64 64v128c0 35.2-28.8 64-64 64zM256 640h-128v128h128v-128zM896 192h-128c-35.2 0-64-28.8-64-64v-128c0-35.2 28.8-64 64-64h128c35.2 0 64 28.8 64 64v128c0 35.2-28.8 64-64 64zM896 0h-128v128h128v-128zM576 192h-128c-35.2 0-64-28.8-64-64v-128c0-35.2 28.8-64 64-64h128c35.2 0 64 28.8 64 64v128c0 35.2-28.8 64-64 64zM576 0h-128v128h128v-128zM256 192h-128c-35.2 0-64-28.8-64-64v-128c0-35.2 28.8-64 64-64h128c35.2 0 64 28.8 64 64v128c0 35.2-28.8 64-64 64zM256 0h-128v128h128v-128z" />
<glyph unicode="&#xe631;" glyph-name="enter" d="M384 384h-320v128h320v128l192-192-192-192zM1024 896v-832l-384-192v192h-384v256h64v-192h320v576l256 128h-576v-256h-64v320z" />
<glyph unicode="&#xe632;" glyph-name="exit" d="M768 256v128h-320v128h320v128l192-192zM704 320v-256h-320v-192l-384 192v832h704v-320h-64v256h-512l256-128v-576h256v192z" />
<glyph unicode="&#xe633;" glyph-name="new-set" d="M320 768h-128c-35.2 0-64-28.8-64-64v-128c0-35.2 28.8-64 64-64h128c35.2 0 64 28.8 64 64v128c0 35.2-28.8 64-64 64zM704 512h128c35.2 0 64 28.8 64 64v128c0 35.2-28.8 64-64 64h-128c-35.2 0-64-28.8-64-64v-128c0-35.2 28.8-64 64-64zM704 704h128v-128h-128v128zM320 256h-128c-35.2 0-64-28.8-64-64v-128c0-35.2 28.8-64 64-64h128c35.2 0 64 28.8 64 64v128c0 35.2-28.8 64-64 64zM320 64h-128v128h128v-128zM832 256h-128c-35.2 0-64-28.8-64-64v-128c0-35.2 28.8-64 64-64h128c35.2 0 64 28.8 64 64v128c0 35.2-28.8 64-64 64zM896 384h-64c-85.476 0-165.834 33.286-226.274 93.724-60.44 60.442-93.726 140.802-93.726 226.276v64c0 70.4-57.6 128-128 128h-256c-70.4 0-128-57.6-128-128v-256c0-70.4 57.6-128 128-128h64c85.476 0 165.834-33.286 226.274-93.724 60.44-60.442 93.726-140.802 93.726-226.276v-64c0-70.4 57.6-128 128-128h256c70.4 0 128 57.6 128 128v256c0 70.4-57.6 128-128 128zM960 0c0-16.954-6.696-32.986-18.856-45.144-12.158-12.16-28.19-18.856-45.144-18.856h-256c-16.954 0-32.986 6.696-45.144 18.856-12.16 12.158-18.856 28.19-18.856 45.144v64c0 212.078-171.922 384-384 384h-64c-16.954 0-32.986 6.696-45.146 18.854-12.158 12.16-18.854 28.192-18.854 45.146v256c0 16.954 6.696 32.986 18.854 45.146 12.16 12.158 28.192 18.854 45.146 18.854h256c16.954 0 32.986-6.696 45.146-18.854 12.158-12.16 18.854-28.192 18.854-45.146v-64c0-212.078 171.922-384 384-384h64c16.954 0 32.986-6.696 45.144-18.856 12.16-12.158 18.856-28.19 18.856-45.144v-256z" />
<glyph unicode="&#xe634;" glyph-name="new" d="M903.432 696.57l-142.864 142.862c-31.112 31.112-92.568 56.568-136.568 56.568h-480c-44 0-80-36-80-80v-864c0-44 36-80 80-80h736c44 0 80 36 80 80v608c0 44-25.456 105.458-56.568 136.57zM858.178 651.314c3.13-3.13 6.25-6.974 9.28-11.314h-163.458v163.456c4.34-3.030 8.184-6.15 11.314-9.28l142.864-142.862zM896-48c0-8.672-7.328-16-16-16h-736c-8.672 0-16 7.328-16 16v864c0 8.672 7.328 16 16 16h480c4.832 0 10.254-0.61 16-1.704v-254.296h254.296c1.094-5.746 1.704-11.166 1.704-16v-608z" />
<glyph unicode="&#xe635;" glyph-name="library" d="M224 768h-192c-17.6 0-32-14.4-32-32v-704c0-17.6 14.4-32 32-32h192c17.6 0 32 14.4 32 32v704c0 17.6-14.4 32-32 32zM192 576h-128v64h128v-64zM544 768h-192c-17.6 0-32-14.4-32-32v-704c0-17.6 14.4-32 32-32h192c17.6 0 32 14.4 32 32v704c0 17.6-14.4 32-32 32zM512 576h-128v64h128v-64zM765.088 718.52l-171.462-86.394c-15.716-7.918-22.098-27.258-14.18-42.976l287.978-571.548c7.918-15.716 27.258-22.098 42.976-14.178l171.462 86.392c15.716 7.92 22.098 27.26 14.18 42.972l-287.978 571.552c-7.92 15.718-27.26 22.1-42.976 14.18v0z" />
<glyph unicode="&#xe636;" glyph-name="sync" d="M889.68 729.68c-93.608 102.216-228.154 166.32-377.68 166.32-282.77 0-512-229.23-512-512h96c0 229.75 186.25 416 416 416 123.020 0 233.542-53.418 309.696-138.306l-149.696-149.694h352v352l-134.32-134.32zM928 384c0-229.75-186.25-416-416-416-123.020 0-233.542 53.418-309.694 138.306l149.694 149.694h-352v-352l134.32 134.32c93.608-102.216 228.154-166.32 377.68-166.32 282.77 0 512 229.23 512 512h-96z" />
<glyph unicode="&#xe637;" glyph-name="icw" d="M512 32h64v-160h-64v160zM512 896h64v-160h-64v160zM608 704h160v-64h-160v64zM608 128h160v-64h-160v64zM1024 384l-192 192v-128h-256v256h-576v-64h512v-512h-512v-64h576v256h256v-128z" />
<glyph unicode="&#xe638;" glyph-name="dcw" d="M832 736h-64v160h64v-160zM832 32h-64v-160h64v160zM1024 704h-160v-64h160v64zM1024 128h-160v-64h160v64zM192 704v-64h576v-512h-576v-64h640v640zM256 384l192-192v128h256v128h-256v128z" />
<glyph unicode="&#xe639;" glyph-name="cart" d="M977.582 765.538c-33.984 9.708-69.41-9.97-79.12-43.956l-5.022-17.582h-596.942l-8.992 71.938c-4.004 32.028-31.23 56.062-63.506 56.062h-160c-35.346 0-64-28.654-64-64s28.654-64 64-64h103.502l56.992-455.938c4.004-32.026 31.23-56.062 63.506-56.062h544c28.574 0 53.688 18.944 61.538 46.418l128 448c9.71 33.986-9.97 69.41-43.956 79.12zM512 448v64h127.996v-64h-127.996zM639.996 384v-64h-127.996v64h127.996zM512 576v64h127.996v-64h-127.996zM304.498 640h143.502v-64h-135.502l-8 64zM320.498 512h127.502v-64h-119.502l-8 64zM336.498 384h111.502v-64h-103.502l-8 64zM783.724 320h-79.728v64h98.014l-18.286-64zM820.296 448h-116.3v64h134.586l-18.286-64zM856.868 576h-152.872v64h171.158l-18.286-64zM256 32c0 53.019 42.981 96 96 96s96-42.981 96-96c0-53.019-42.981-96-96-96s-96 42.981-96 96zM640 32c0 53.019 42.981 96 96 96s96-42.981 96-96c0-53.019-42.981-96-96-96s-96 42.981-96 96z" />
<glyph unicode="&#xe63a;" glyph-name="plus" d="M960 448h-384v384h-128v-384h-384v-128h384v-384h128v384h384z" />
<glyph unicode="&#xe63b;" glyph-name="info2" d="M512 896c-282.77 0-512-229.23-512-512s229.23-512 512-512 512 229.23 512 512-229.23 512-512 512zM512-32c-229.75 0-416 186.25-416 416s186.25 416 416 416 416-186.25 416-416-186.25-416-416-416zM448 640h128v-128h-128zM640 128h-256v64h64v192h-64v64h192v-256h64z" />
<glyph unicode="&#xe63c;" glyph-name="minus" d="M64 448h896v-128h-896v128z" />
<glyph unicode="&#xe63d;" glyph-name="infinite" d="M783.988 143.988c-64.104 0-124.372 24.96-169.7 70.288l-102.288 102.282-102.276-102.27c-45.332-45.336-105.6-70.3-169.706-70.3-64.118 0-124.39 24.964-169.722 70.3-45.332 45.334-70.296 105.604-70.296 169.712s24.964 124.38 70.296 169.714c45.334 45.332 105.608 70.296 169.714 70.296 64.108 0 124.38-24.964 169.712-70.296l102.278-102.276 102.276 102.276c45.332 45.332 105.604 70.298 169.712 70.298 64.112 0 124.384-24.966 169.71-70.298 45.338-45.334 70.302-105.606 70.302-169.714 0-64.112-24.964-124.382-70.3-169.71-45.326-45.336-105.598-70.302-169.712-70.302zM681.72 281.712c27.322-27.31 63.64-42.354 102.268-42.352 38.634 0 74.958 15.044 102.276 42.362 27.316 27.322 42.364 63.644 42.364 102.278s-15.046 74.956-42.364 102.274c-27.32 27.318-63.64 42.364-102.276 42.364-38.632 0-74.956-15.044-102.278-42.364l-102.268-102.274 102.278-102.288zM240.012 528.638c-38.634 0-74.956-15.044-102.274-42.364-27.32-27.318-42.364-63.64-42.364-102.274 0-38.632 15.044-74.954 42.364-102.276 27.32-27.316 63.642-42.364 102.274-42.364 38.634 0 74.956 15.044 102.272 42.362l102.276 102.278-102.276 102.274c-27.318 27.32-63.64 42.366-102.272 42.364v0z" />
<glyph unicode="&#xe63e;" glyph-name="neutral" d="M256 576c0-35.346 28.654-64 64-64s64 28.654 64 64-28.654 64-64 64-64-28.654-64-64zM640 576c0-35.346 28.654-64 64-64s64 28.654 64 64-28.654 64-64 64-64-28.654-64-64zM320 192h384v-64h-384v64zM512 896c-282.77 0-512-229.23-512-512s229.23-512 512-512 512 229.23 512 512-229.23 512-512 512zM512-64c-247.424 0-448 200.576-448 448s200.576 448 448 448 448-200.576 448-448-200.576-448-448-448z" />
<glyph unicode="&#xe63f;" glyph-name="smile" d="M512 896c-282.77 0-512-229.23-512-512s229.23-512 512-512 512 229.23 512 512-229.23 512-512 512zM512-64c-247.424 0-448 200.576-448 448s200.576 448 448 448 448-200.576 448-448-200.576-448-448-448zM798.26 240.872l-57.252 28.624c-42.030-83.894-128.786-141.496-229.008-141.496s-186.978 57.602-229.008 141.496l-57.252-28.624c52.538-104.87 160.982-176.872 286.26-176.872s233.722 72.002 286.26 176.872zM384 576c0-35.346-28.654-64-64-64s-64 28.654-64 64c0 35.346 28.654 64 64 64s64-28.654 64-64zM768 576c0-35.346-28.654-64-64-64s-64 28.654-64 64c0 35.346 28.654 64 64 64s64-28.654 64-64z" />
<glyph unicode="&#xe640;" glyph-name="question" d="M512 896c-282.77 0-512-229.23-512-512s229.23-512 512-512 512 229.23 512 512-229.23 512-512 512zM512 0c-35.346 0-64 28.654-64 64s28.654 64 64 64c35.346 0 64-28.654 64-64s-28.654-64-64-64zM645.36 364.936c-23.91-13.626-44.558-25.396-58.546-47-14.352-22.166-21.936-54.434-23.060-97.964-2-15.71-15.482-27.97-31.714-27.97h-40.074c-17.6 0-32 14.4-32 32h-0.102c1.916 62.832 14.968 112.33 39.652 150.456 27.766 42.886 64.686 63.928 94.352 80.836 41.112 23.432 58.132 33.13 58.132 88.706 0 27.032-13.326 53.024-37.526 73.19-26.936 22.448-63.33 34.81-102.474 34.81s-75.538-12.362-102.474-34.81c-24.2-20.166-37.526-46.158-37.526-73.19 0-17.6-14.4-32-32-32h-40c-17.6 0-32 14.4-32 32 0 58.444 26.616 112.81 74.946 153.084 45.59 37.994 105.628 58.916 169.054 58.916s123.462-20.922 169.054-58.916c48.33-40.274 74.946-94.64 74.946-153.084 0-116.006-63.948-152.452-110.64-179.064z" />
<glyph unicode="&#xe641;" glyph-name="move" d="M768 640v-192h-192v192h192l-256 256-256-256h192v-192h-192v192l-256-256 256-256v192h192v-192h-192l256-256 256 256h-192v192h192v-192l256 256z" />
<glyph unicode="&#xe642;" glyph-name="moveup" d="M704 384v-384h64v384h160l-192 192-192-192zM64 704h96v-64h-96v64zM192 704h96v-64h-96v64zM320 704h64v-96h-64v96zM64 480h64v-96h-64v96zM160 448h96v-64h-96v64zM288 448h96v-64h-96v64zM64 608h64v-96h-64v96zM320 576h64v-96h-64v96zM320 192v-192h-192v192h192zM384 256h-320v-320h320v320z" />
<glyph unicode="&#xe643;" glyph-name="movedown" d="M768 192v384h-64v-384h-160l192-192 192 192zM320 640v-192h-192v192h192zM384 704h-320v-320h320v320zM64 256h96v-64h-96v64zM192 256h96v-64h-96v64zM320 256h64v-96h-64v96zM64 32h64v-96h-64v96zM160 0h96v-64h-96v64zM288 0h96v-64h-96v64zM64 160h64v-96h-64v96zM320 128h64v-96h-64v96z" />
<glyph unicode="&#xe644;" glyph-name="codepen" horiz-adv-x="960" d="M945.75 591.958l-448 298.666c-10.748 7.166-24.752 7.166-35.5 0l-448-298.666c-8.902-5.934-14.25-15.926-14.25-26.624v-298.666c0-10.7 5.348-20.692 14.25-26.624l448-298.666c5.374-3.584 11.562-5.376 17.75-5.376s12.376 1.792 17.75 5.376l448 298.666c8.902 5.934 14.25 15.926 14.25 26.624v298.666c0 10.698-5.348 20.69-14.25 26.624zM480 305.124l-166.312 110.876 166.312 110.874 166.312-110.874-166.312-110.876zM512 582.458v221.75l358.31-238.876-166.31-110.874-192 128zM448 582.458l-192-128-166.312 110.874 358.312 238.876v-221.75zM198.312 416l-134.312-89.542v179.082l134.312-89.54zM256 377.542l192-128v-221.748l-358.312 238.872 166.312 110.876zM512 249.542l192 128 166.312-110.876-358.312-238.874v221.75zM761.688 416l134.312 89.54v-179.084l-134.312 89.544z" />
<glyph unicode="&#xe645;" glyph-name="import2" d="M896 896h-768c-70.4 0-128-57.6-128-128v-768c0-70.4 57.6-128 128-128h768c70.4 0 128 57.6 128 128v768c0 70.4-57.6 128-128 128zM768 320h-192v-192h-128v192h-192v128h192v192h128v-192h192v-128z" />
<glyph unicode="&#xe646;" glyph-name="copy-selection" d="M320 320v128c0 35.2-28.8 64-64 64h-128c-35.2 0-64-28.8-64-64v-128c0-35.2 28.8-64 64-64h128c35.2 0 64 28.8 64 64zM64 768v-128c0-35.2 28.8-64 64-64h128c35.2 0 64 28.8 64 64v128c0 35.2-28.8 64-64 64h-128c-35.2 0-64-28.8-64-64zM384 448v-128h384v-160l224 224-224 224v-160h-384zM384 704v-64h128v-128h64v128h128v64h-128v128h-64v-128h-128zM256 192h-128c-35.2 0-64-28.8-64-64v-128c0-35.2 28.8-64 64-64h128c35.2 0 64 28.8 64 64v128c0 35.2-28.8 64-64 64zM256 0h-128v128h128v-128zM576 192h-128c-35.2 0-64-28.8-64-64v-128c0-35.2 28.8-64 64-64h128c35.2 0 64 28.8 64 64v128c0 35.2-28.8 64-64 64zM576 0h-128v128h128v-128z" />
<glyph unicode="&#xe647;" glyph-name="font" d="M799.596 879.792c-90.526 0-148.62 16.208-241.848 16.208-301.284 0-441.792-171.584-441.792-345.872 0-102.678 48.64-136.458 144.564-136.458-6.758 14.864-18.914 31.080-18.914 104.034 0 204.010 77.006 263.458 175.636 267.51 0 0-80.918-793.374-315.778-888.542v-24.672h316.594l108.026 512h197.844l44.072 128h-214.908l51.944 246.19c59.446-12.156 117.542-24.316 167.532-24.316 62.148 0 118.894 18.914 149.968 162.126-37.826-12.16-78.362-16.208-122.94-16.208z" />
<glyph unicode="&#xe648;" glyph-name="radio-unchecked" d="M512 896c-282.77 0-512-229.23-512-512s229.23-512 512-512 512 229.23 512 512-229.23 512-512 512zM512 0c-212.078 0-384 171.922-384 384s171.922 384 384 384c212.078 0 384-171.922 384-384s-171.922-384-384-384z" />
<glyph unicode="&#xe649;" glyph-name="radio-checked" d="M512 896c-282.77 0-512-229.23-512-512s229.23-512 512-512 512 229.23 512 512-229.23 512-512 512zM512 256c-70.692 0-128 57.306-128 128 0 70.692 57.308 128 128 128 70.694 0 128-57.308 128-128 0-70.694-57.306-128-128-128z" />
<glyph unicode="&#xe64a;" glyph-name="sort" d="M768 512l-256 256-256-256h512zM256 256l256-256 256 256h-512z" />
<glyph unicode="&#xe64b;" glyph-name="upload" d="M160 512l352 352 352-352h-224v-384h-256v384zM896 384v-384h-768v384h-128v-416c0-52.8 43.2-96 96-96h832c52.8 0 96 43.2 96 96v416h-128z" />
<glyph unicode="&#xe64c;" glyph-name="rearrange" d="M832 128v320h128v384h-384v-384h128v-320h-160l224-224 224 224h-160zM640 512v256h256v-256h-64v192h-128v-192h-64zM192 640v-320h-128v-384h384v384h-128v320h160l-224 224-224-224h160zM384 256v-256h-256v256h64v-192h128v192h64z" />
<glyph unicode="&#xe64d;" glyph-name="new2" d="M960-128h-896c-35.2 0-64 28.8-64 64v896c0 35.2 28.8 64 64 64h896c35.2 0 64-28.8 64-64v-896c0-35.2-28.8-64-64-64zM64 832v-896h896v896h-896zM768 448h-192v192h-128v-192h-192v-128h192v-192h128v192h192z" />
<glyph unicode="&#xe64e;" glyph-name="duplicate" d="M448 320v-448h576v448h-576zM960-64h-448v320h448v-320zM384-64h-320v320h320v64h-384v-448h384zM832 576v320h-704v-512h128v384h448v-192h-160l224-224 224 224z" />
<glyph unicode="&#xe64f;" glyph-name="rotate-flip" d="M320 576l192-192-192-192zM704 576l-192-192 192-192zM874 746c-92.6 92.6-220.6 150-362 150-282.8 0-512-229.2-512-512s229.2-512 512-512c141.4 0 269.4 57.4 362 150l-67.8 67.8c-75.4-75.2-179.4-121.8-294.2-121.8-229.8 0-416 186.2-416 416s186.2 416 416 416c114.8 0 218.8-46.6 294.2-121.8l217.8-217.8v435.6l-150-150z" />
<glyph unicode="&#xe650;" glyph-name="canvas" d="M192 704v-640h640v640h-640zM768 128h-512v512h512v-512zM832 736h-64v160h64v-160zM256 896h-64v-160h64v160zM832 32h-64v-160h64v160zM256 32h-64v-160h64v160zM1024 704h-160v-64h160v64zM160 704h-160v-64h160v64zM1024 128h-160v-64h160v64zM160 128h-160v-64h160v64z" />
<glyph unicode="&#xe651;" glyph-name="droplet" d="M864.626 422.838c-65.754 183.44-205.11 348.15-352.626 473.162-147.516-125.012-286.87-289.722-352.626-473.162-40.664-113.436-44.682-236.562 12.584-345.4 65.846-125.14 198.632-205.438 340.042-205.438s274.196 80.298 340.040 205.44c57.27 108.838 53.25 231.962 12.586 345.398zM738.764 137.044c-43.802-83.252-132.812-137.044-226.764-137.044-55.12 0-108.524 18.536-152.112 50.652 13.242-1.724 26.632-2.652 40.112-2.652 117.426 0 228.668 67.214 283.402 171.242 44.878 85.292 40.978 173.848 23.882 244.338 14.558-28.15 26.906-56.198 36.848-83.932 22.606-63.062 40.024-156.34-5.368-242.604z" />
<glyph unicode="&#xe652;" glyph-name="align-bottom" d="M192 64v640h640v-640h-640zM768 640h-512v-512h512v512zM832 32h-64v-160h64v160zM256-128h-64v160h64v-160zM832 736h-64v160h64v-160zM256 736h-64v160h64v-160zM1024 64h-160v64h160v-64zM160 64h-160v64h160v-64zM1024 640h-160v64h160v-64zM160 640h-160v64h160v-64zM640 256c0 70.692-57.308 128-128 128s-128-57.308-128-128c0-70.692 57.308-128 128-128s128 57.308 128 128z" />
<glyph unicode="&#xe653;" glyph-name="align-top" d="M192 704v-640h640v640h-640zM768 128h-512v512h512v-512zM832 736h-64v160h64v-160zM256 896h-64v-160h64v160zM832 32h-64v-160h64v160zM256 32h-64v-160h64v160zM1024 704h-160v-64h160v64zM160 704h-160v-64h160v64zM1024 128h-160v-64h160v64zM160 128h-160v-64h160v64zM640 512c0-70.692-57.308-128-128-128s-128 57.308-128 128c0 70.692 57.308 128 128 128s128-57.308 128-128z" />
<glyph unicode="&#xe654;" glyph-name="fit-to-canvas" d="M480 704l128-128-288-288-128 128v-352h352l-128 128 288 288 128-128v352zM0 896v-1024h1024v1024h-1024zM960-64h-896v896h896v-896z" />
<glyph unicode="&#xe655;" glyph-name="align-right" d="M832 704v-640h-640v640h640zM256 128h512v512h-512v-512zM192 736h64v160h-64v-160zM768 896h64v-160h-64v160zM192 32h64v-160h-64v160zM768 32h64v-160h-64v160zM0 704h160v-64h-160v64zM864 704h160v-64h-160v64zM0 128h160v-64h-160v64zM864 128h160v-64h-160v64zM512 384c0-70.692 57.308-128 128-128s128 57.308 128 128c0 70.692-57.308 128-128 128s-128-57.308-128-128z" />
<glyph unicode="&#xe656;" glyph-name="align-left" d="M192 704v-640h640v640h-640zM768 128h-512v512h512v-512zM832 736h-64v160h64v-160zM256 896h-64v-160h64v160zM832 32h-64v-160h64v160zM256 32h-64v-160h64v160zM1024 704h-160v-64h160v64zM160 704h-160v-64h160v64zM1024 128h-160v-64h160v64zM160 128h-160v-64h160v64zM512 384c0-70.692-57.308-128-128-128s-128 57.308-128 128c0 70.692 57.308 128 128 128s128-57.308 128-128z" />
<glyph unicode="&#xe657;" glyph-name="align-center" d="M192 704v-640h640v640h-640zM768 128h-512v512h512v-512zM832 736h-64v160h64v-160zM256 896h-64v-160h64v160zM832 32h-64v-160h64v160zM256 32h-64v-160h64v160zM1024 704h-160v-64h160v64zM160 704h-160v-64h160v64zM1024 128h-160v-64h160v64zM160 128h-160v-64h160v64zM640 384c0-70.692-57.308-128-128-128s-128 57.308-128 128c0 70.692 57.308 128 128 128s128-57.308 128-128z" />
<glyph unicode="&#xe658;" glyph-name="send-backward" d="M448 576v256h576v-256h-576zM960 768h-448v-128h448v128zM448 256v256h576v-256h-576zM448-64v256h576v-256h-576zM960 128h-448v-128h448v128zM192 320l-192 192h128v320h128v-320h128z" />
<glyph unicode="&#xe659;" glyph-name="bring-forward" d="M448 192v-256h576v256h-576zM960 0h-448v128h448v-128zM448 512v-256h576v256h-576zM448 832v-256h576v256h-576zM960 640h-448v128h448v-128zM192 448l-192-192h128v-320h128v320h128z" />
<glyph unicode="&#xe900;" glyph-name="smile2" d="M512 896c-282.77 0-512-229.23-512-512s229.23-512 512-512 512 229.23 512 512-229.23 512-512 512zM704 640c35.346 0 64-28.654 64-64s-28.654-64-64-64-64 28.654-64 64 28.654 64 64 64zM320 640c35.346 0 64-28.654 64-64s-28.654-64-64-64-64 28.654-64 64 28.654 64 64 64zM512 64c-116.51 0-218.464 62.274-274.426 155.344l82.328 49.396c39.174-65.148 110.542-108.74 192.098-108.74s152.924 43.592 192.098 108.74l82.328-49.396c-55.962-93.070-157.916-155.344-274.426-155.344z" />
<glyph unicode="&#xe901;" glyph-name="droplet-cross" d="M864.6 422.8c-65.8 183.4-205 348.2-352.6 473.2-147.6-125-286.8-289.8-352.6-473.2-40.6-113.4-44.8-236.6 12.6-345.4 65.8-125.2 198.6-205.4 340-205.4s274.2 80.2 340 205.4c57.4 108.8 53.2 232 12.6 345.4zM728 120l-80-80-136 136-136-136-80 80 136 136-136 136 80 80 136-136 136 136 80-80-136-136 136-136z" />
<glyph unicode="&#xe902;" glyph-name="move-selection" d="M320 320v128c0 35.2-28.8 64-64 64h-128c-35.2 0-64-28.8-64-64v-128c0-35.2 28.8-64 64-64h128c35.2 0 64 28.8 64 64zM64 768v-128c0-35.2 28.8-64 64-64h128c35.2 0 64 28.8 64 64v128c0 35.2-28.8 64-64 64h-128c-35.2 0-64-28.8-64-64zM384 448v-128h384v-160l224 224-224 224v-160h-384zM256 192h-128c-35.2 0-64-28.8-64-64v-128c0-35.2 28.8-64 64-64h128c35.2 0 64 28.8 64 64v128c0 35.2-28.8 64-64 64zM256 0h-128v128h128v-128zM576 192h-128c-35.2 0-64-28.8-64-64v-128c0-35.2 28.8-64 64-64h128c35.2 0 64 28.8 64 64v128c0 35.2-28.8 64-64 64zM576 0h-128v128h128v-128zM384 704h320v-64h-320v64z" />
<glyph unicode="&#xe903;" glyph-name="make-square" d="M192 704v-640h640v640h-640zM768 128h-512v512h512v-512zM832 736h-64v160h64v-160zM256 896h-64v-160h64v160zM832 32h-64v-160h64v160zM256 32h-64v-160h64v160zM1024 704h-160v-64h160v64zM160 704h-160v-64h160v64zM1024 128h-160v-64h160v64zM160 128h-160v-64h160v64zM704 192h-384v384h384v-384zM384 256h256v256h-256v-256z" />
</font>
</defs>
</svg>
